1.9Hzhigh3min_grf.mot
version=1
nRows=25
nColumns 19
inDegrees=yes
endheader
time	1_ground_force_vx	1_ground_force_vy	1_ground_force_vz	1_ground_force_px	1_ground_force_py	1_ground_force_pz	1_ground_torque_x	1_ground_torque_y	1_ground_torque_z	2_ground_force_vx	2_ground_force_vy	2_ground_force_vz	2_ground_force_px	2_ground_force_py	2_ground_force_pz	2_ground_torque_x	2_ground_torque_y	2_ground_torque_z
            1.253500	            0.183088	            3.424493	            0.151799	           -0.233013	            0.005581	           -0.255695	            0.254788	           -0.147756	            0.006431	            0.365953	            2.396955	           -0.460899	           -0.232311	            0.006130	           -0.833667	           -0.281402	           -0.132548	           -0.226555
            1.254000	            0.504217	            3.424162	            0.242714	           -0.233013	            0.005581	           -0.255695	            0.175691	            0.065140	           -0.016373	            0.368776	            1.659023	           -0.088102	           -0.232311	            0.006130	           -0.833667	           -0.149914	           -0.122823	           -0.170026
            1.254500	            0.366119	            3.425119	            0.013776	           -0.233013	            0.005581	           -0.255695	            0.335674	            0.074262	           -0.003797	            0.183933	            0.922590	           -0.325291	           -0.232311	            0.006130	           -0.833667	           -0.243783	           -0.123632	           -0.038035
            1.255000	            0.596277	            3.243324	            0.379282	           -0.233013	            0.005581	           -0.255695	            0.132572	           -0.073715	            0.043449	            0.137747	            0.738272	           -0.325928	           -0.232311	            0.006130	           -0.833667	           -0.262796	           -0.075966	           -0.169810
            1.255500	            0.411800	            3.064989	           -0.079595	           -0.233013	            0.005581	           -0.255695	            0.227152	           -0.230612	           -0.040463	            0.180589	            1.843499	           -0.368934	           -0.232311	            0.006130	           -0.833667	           -0.169074	           -0.018911	           -0.169647
            1.256000	            0.503794	            3.244683	            0.058518	           -0.233013	            0.005581	           -0.255695	            0.296560	           -0.295739	            0.075777	            0.136980	            0.923258	           -0.559912	           -0.232311	            0.006130	           -0.833667	           -0.225559	            0.018629	           -0.150638
            1.256500	            0.549293	            4.506748	            0.017959	           -0.233013	            0.005581	           -0.255695	            0.222662	           -0.268084	            0.096787	            0.087615	            1.658510	           -0.228767	           -0.232311	            0.006130	           -0.833667	           -0.206414	           -0.085148	           -0.188718
            1.257000	            0.137212	            3.604750	            0.152686	           -0.233013	            0.005581	           -0.255695	            0.292236	           -0.027686	            0.023690	            0.137788	            0.737938	           -0.232072	           -0.232311	            0.006130	           -0.833667	           -0.112385	           -0.113167	           -0.188859
            1.257500	            0.320615	            4.685986	            0.248580	           -0.233013	            0.005581	           -0.255695	            0.287682	            0.055511	            0.050636	            0.323900	            1.106576	           -0.136981	           -0.232311	            0.006130	           -0.833667	           -0.037303	           -0.103241	           -0.245408
            1.258000	            0.503860	            2.884152	            0.056972	           -0.233013	            0.005581	           -0.255695	            0.352954	            0.037195	            0.039481	            0.366741	            2.211803	           -0.179987	           -0.232311	            0.006130	           -0.833667	           -0.187834	           -0.028364	           -0.188523
            1.258500	            0.366493	            3.244263	            0.150571	           -0.233013	            0.005581	           -0.255695	            0.236043	           -0.064323	           -0.022936	            0.135007	            1.475535	           -0.511012	           -0.232311	            0.006130	           -0.833667	           -0.281641	           -0.066380	           -0.226319
            1.259000	            0.412303	            3.424538	            0.151230	           -0.233013	            0.005581	           -0.255695	            0.292377	           -0.258564	            0.015636	            0.318439	            2.580934	           -0.460222	           -0.232311	            0.006130	           -0.833667	           -0.281949	            0.027879	           -0.150581
            1.259500	            0.503468	            3.785873	           -0.030875	           -0.233013	            0.005581	           -0.255695	            0.243900	           -0.295914	            0.113484	           -0.241725	            2.026125	           -0.368098	           -0.232311	            0.006130	           -0.833667	           -0.263162	            0.018763	           -0.226023
            1.260000	            0.412450	            3.244075	            0.196313	           -0.233013	            0.005581	           -0.255695	            0.253073	           -0.184784	            0.053653	            0.273583	            2.028320	           -0.462173	           -0.232311	            0.006130	           -0.833667	           -0.187749	           -0.047404	           -0.150890
            1.260500	            0.413019	            3.243092	            0.425593	           -0.233013	            0.005581	           -0.255695	            0.243462	           -0.064936	            0.129383	            0.184679	            0.737772	           -0.138236	           -0.232311	            0.006130	           -0.833667	           -0.169140	           -0.018373	           -0.320449
            1.261000	            0.550404	            2.162115	            0.283046	           -0.233013	            0.005581	           -0.255695	            0.399870	            0.028151	            0.003710	            0.090938	            0.737768	           -0.232052	           -0.232311	            0.006130	           -0.833667	           -0.168919	           -0.075224	           -0.282951
            1.261500	            0.458245	            2.883750	            0.148797	           -0.233013	            0.005581	           -0.255695	            0.367855	            0.046343	            0.056326	            0.371476	            0.922095	            0.003126	           -0.232311	            0.006130	           -0.833667	           -0.150058	           -0.084945	           -0.188742
            1.262000	            0.412774	            3.964352	            0.382828	           -0.233013	            0.005581	           -0.255695	            0.301098	           -0.147794	            0.053667	            0.045418	            0.369303	           -0.233346	           -0.232311	            0.006130	           -0.833667	           -0.225295	           -0.047741	           -0.094324
            1.262500	            0.549215	            3.065213	           -0.125793	           -0.233013	            0.005581	           -0.255695	            0.266852	           -0.230866	            0.040494	            0.092309	            0.369137	           -0.139510	           -0.232311	            0.006130	           -0.833667	           -0.150237	           -0.037614	           -0.207423
            1.263000	            0.503453	            3.245273	           -0.079050	           -0.233013	            0.005581	           -0.255695	            0.227239	           -0.267866	            0.038472	            0.230782	            0.922759	           -0.325311	           -0.232311	            0.006130	           -0.833667	           -0.206577	           -0.037952	           -0.169699
            1.263500	            0.182876	            3.965487	            0.108262	           -0.233013	            0.005581	           -0.255695	            0.331714	           -0.129658	            0.100289	            0.232797	            0.370147	           -0.280354	           -0.232311	            0.006130	           -0.833667	           -0.262983	           -0.028568	           -0.207342
            1.264000	            0.458586	            2.883160	            0.286365	           -0.233013	            0.005581	           -0.255695	            0.174146	           -0.045882	            0.000018	            0.323818	            1.107246	           -0.324694	           -0.232311	            0.006130	           -0.833667	           -0.206397	           -0.094466	           -0.226452
            1.264500	            0.366478	            2.703663	            0.102396	           -0.233013	            0.005581	           -0.255695	            0.219747	            0.009297	            0.052632	            0.277673	            0.922593	           -0.231475	           -0.232311	            0.006130	           -0.833667	           -0.187578	           -0.094667	           -0.151059
            1.265000	            0.504070	            3.604624	            0.197631	           -0.233013	            0.005581	           -0.255695	            0.271743	           -0.074059	            0.114372	            0.370044	            1.291228	           -0.230201	           -0.232311	            0.006130	           -0.833667	           -0.243959	           -0.094669	           -0.207586
            1.265500	            0.458293	            3.244084	            0.196199	           -0.233013	            0.005581	           -0.255695	            0.271852	           -0.194002	            0.055521	            0.273144	            2.210627	            0.054693	           -0.232311	            0.006130	           -0.833667	           -0.262863	           -0.066244	           -0.245177
